<?xml version="1.0" encoding="UTF-8"?><svg id="Capa_1" xmlns="http://www.w3.org/2000/svg" viewBox="0 0 80 80"><defs><style>.cls-1{fill:#e3acb8;}.cls-2{fill:#d71920;}.cls-3{fill:none;stroke:#d71920;stroke-linecap:round;stroke-linejoin:round;stroke-width:1.2px;}</style></defs><path class="cls-2" d="M68.09,18.06h0c-.02-.12-.07-.24-.12-.35-.01-.03-.03-.05-.04-.08-.06-.11-.14-.21-.23-.31l-12.76-12.76c-.09-.09-.2-.16-.31-.23-.03-.02-.05-.03-.08-.04-.2-.1-.41-.15-.63-.15H15.5c-.8,0-1.44,.65-1.44,1.44V74.88c0,.8,.65,1.44,1.44,1.44h51.17c.8,0,1.44-.65,1.44-1.44V18.34c0-.09,0-.19-.03-.28Zm-12.73-8.99l1,1,6.83,6.83h-7.83v-7.83ZM16.95,73.44V7.03H52.46v11.32c0,.8,.65,1.44,1.44,1.44h11.32v53.65H16.95Z"/><path class="cls-2" d="M49.12,20.8h-9.08c-.87,0-1.58,.71-1.58,1.58s.71,1.58,1.58,1.58h9.08c.87,0,1.58-.71,1.58-1.58s-.71-1.58-1.58-1.58Z"/><path class="cls-2" d="M59.12,28.03h-19.08c-.87,0-1.58,.71-1.58,1.58s.71,1.58,1.58,1.58h19.08c.87,0,1.58-.71,1.58-1.58s-.71-1.58-1.58-1.58Z"/><path class="cls-2" d="M49.12,38.96h-9.08c-.87,0-1.58,.71-1.58,1.58s.71,1.58,1.58,1.58h9.08c.87,0,1.58-.71,1.58-1.58s-.71-1.58-1.58-1.58Z"/><path class="cls-2" d="M59.12,46.19h-19.08c-.87,0-1.58,.71-1.58,1.58s.71,1.58,1.58,1.58h19.08c.87,0,1.58-.71,1.58-1.58s-.71-1.58-1.58-1.58Z"/><ellipse class="cls-1" cx="27.16" cy="25.94" rx="5.64" ry="5.47"/><path class="cls-2" d="M33.3,26.08c0,3.45-2.79,6.24-6.24,6.24s-6.24-2.79-6.24-6.24,2.79-6.24,6.24-6.24,6.24,2.79,6.24,6.24Zm-1.17,0c0-2.8-2.27-5.07-5.07-5.07s-5.07,2.27-5.07,5.07,2.27,5.07,5.07,5.07,5.07-2.27,5.07-5.07Z"/><ellipse class="cls-1" cx="27.16" cy="43.49" rx="5.64" ry="5.47"/><path class="cls-2" d="M33.3,43.62c0,3.45-2.79,6.24-6.24,6.24s-6.24-2.79-6.24-6.24,2.79-6.24,6.24-6.24,6.24,2.79,6.24,6.24Zm-1.17,0c0-2.8-2.27-5.07-5.07-5.07s-5.07,2.27-5.07,5.07,2.27,5.07,5.07,5.07,5.07-2.27,5.07-5.07Z"/><path class="cls-2" d="M49.12,55.84h-9.08c-.87,0-1.58,.71-1.58,1.58s.71,1.58,1.58,1.58h9.08c.87,0,1.58-.71,1.58-1.58s-.71-1.58-1.58-1.58Z"/><path class="cls-2" d="M59.12,63.07h-19.08c-.87,0-1.58,.71-1.58,1.58s.71,1.58,1.58,1.58h19.08c.87,0,1.58-.71,1.58-1.58s-.71-1.58-1.58-1.58Z"/><ellipse class="cls-1" cx="27.16" cy="60.36" rx="5.64" ry="5.47"/><path class="cls-2" d="M33.3,60.5c0,3.45-2.79,6.24-6.24,6.24s-6.24-2.79-6.24-6.24,2.79-6.24,6.24-6.24,6.24,2.79,6.24,6.24Zm-1.17,0c0-2.8-2.27-5.07-5.07-5.07s-5.07,2.27-5.07,5.07,2.27,5.07,5.07,5.07,5.07-2.27,5.07-5.07Z"/><polyline class="cls-3" points="24.81 26.17 26.22 27.59 29.51 24.3"/><polyline class="cls-3" points="24.81 44 26.22 45.41 29.51 42.12"/><polyline class="cls-3" points="24.81 60.87 26.22 62.28 29.51 58.99"/></svg>