<?xml version="1.0" encoding="UTF-8"?><svg id="Capa_1" xmlns="http://www.w3.org/2000/svg" viewBox="0 0 80 80"><defs><style>.cls-1{fill:#bdbdbd;}.cls-2{fill:#424242;}</style></defs><g><path class="cls-2" d="M45.08,39h0c-.02-.08-.04-.15-.08-.22,0-.02-.02-.03-.03-.05-.04-.07-.09-.14-.14-.19l-8.08-8.08c-.06-.06-.12-.1-.19-.14-.02,0-.03-.02-.05-.03-.12-.06-.26-.1-.4-.1H11.77c-.51,0-.91,.41-.91,.91v43.9c0,.5,.41,.91,.91,.91H44.18c.5,0,.91-.41,.91-.91V39.18c0-.06,0-.12-.02-.18Zm-8.07-5.7l.63,.63,4.33,4.33h-4.96v-4.96ZM12.68,74.08V32.01h22.5v7.17c0,.51,.41,.91,.91,.91h7.17v33.98H12.68Z"/><path class="cls-2" d="M36.1,58.42H17.68c-.55,0-1,.45-1,1s.45,1,1,1h18.42c.55,0,1-.45,1-1s-.45-1-1-1Z"/><path class="cls-2" d="M36.1,63.77H17.68c-.55,0-1,.45-1,1s.45,1,1,1h18.42c.55,0,1-.45,1-1s-.45-1-1-1Z"/></g><g><path class="cls-2" d="M60.36,7.56l.63,.63,4.33,4.33h-4.96V7.56Zm-10.47,42.6h17.63c.51,0,.91-.41,.91-.91V13.44c0-.06,0-.12-.02-.18h0c-.02-.08-.04-.15-.08-.22,0-.02-.02-.03-.03-.05-.04-.07-.09-.14-.14-.19l-8.08-8.08c-.06-.06-.12-.1-.19-.14-.02,0-.03-.02-.05-.03-.12-.06-.26-.1-.4-.1h-24.33c-.51,0-.91,.41-.91,.91V24.91c0,.5,.4,.9,.89,.91h0c.51,.01,.93-.4,.93-.91V6.27h22.5v7.17c0,.51,.41,.91,.91,.91h7.17V48.34h-16.72c-.5,0-.91,.41-.91,.91h0c0,.51,.41,.91,.91,.91Z"/><path class="cls-2" d="M59.44,32.68h-14.35c-.55,0-1,.45-1,1s.45,1,1,1h14.35c.55,0,1-.45,1-1s-.45-1-1-1Z"/><path class="cls-2" d="M59.44,38.03h-10.27c-.55,0-1,.45-1,1s.45,1,1,1h10.27c.55,0,1-.45,1-1s-.45-1-1-1Z"/></g><path class="cls-2" d="M32.97,44.45c-.8,0-1.45,.65-1.45,1.45,0,.31,.1,.6,.27,.83l-3.32,4.58c-.15-.06-.32-.09-.49-.09-.25,0-.49,.07-.7,.19l-2.84-2.68c.05-.14,.08-.29,.08-.45,0-.8-.65-1.45-1.45-1.45s-1.45,.65-1.45,1.45c0,.09,.01,.17,.03,.26l-2.7,1.96s-.03,.03-.05,.04c-.23-.15-.49-.23-.78-.23-.8,0-1.45,.65-1.45,1.45s.65,1.45,1.45,1.45,1.45-.65,1.45-1.45c0-.13-.02-.25-.05-.36,.02-.01,.04-.02,.06-.03l2.65-1.92c.24,.18,.53,.29,.85,.29,.25,0,.48-.07,.69-.18l2.85,2.68c-.04,.14-.07,.28-.07,.43,0,.8,.65,1.45,1.45,1.45s1.45-.65,1.45-1.45c0-.23-.06-.45-.16-.64l3.42-4.71c.09,.02,.19,.03,.29,.03,.8,0,1.45-.65,1.45-1.45s-.65-1.45-1.45-1.45Zm-14.85,8.13c-.46,0-.83-.37-.83-.83s.37-.83,.83-.83,.83,.37,.83,.83-.37,.83-.83,.83Zm9.86-.75s.07,0,.1,.01l-.14,.19-.18-.17c.07-.02,.14-.03,.21-.03Zm-4.91-4.38c.43,0,.79,.34,.82,.76l-.46-.43c-.19-.17-.47-.19-.68-.04l-.5,.36c.08-.37,.41-.65,.81-.65Zm0,1.66c-.11,0-.22-.02-.31-.06l.27-.19,.24,.23c-.06,.02-.13,.03-.2,.03Zm5.74,3.55c0,.46-.37,.83-.83,.83-.43,0-.78-.33-.82-.74l.5,.47c.1,.09,.23,.14,.36,.14,.02,0,.03,0,.05,0,.15-.01,.29-.09,.38-.22l.36-.49h0Zm4.31-5.94l.28-.39c.17-.24,.12-.57-.12-.74-.24-.17-.57-.12-.74,.12l-.35,.48c-.03-.09-.05-.18-.05-.28,0-.46,.37-.83,.83-.83s.83,.37,.83,.83c0,.41-.3,.75-.68,.82Z"/><path class="cls-1" d="M28.87,52.66c0,.49-.4,.89-.89,.89s-.89-.4-.89-.89,.4-.89,.89-.89,.89,.4,.89,.89Z"/><path class="cls-1" d="M33.86,45.88c0,.49-.4,.89-.89,.89s-.89-.4-.89-.89,.4-.89,.89-.89,.89,.4,.89,.89Z"/><circle class="cls-1" cx="23.08" cy="48.27" r=".89"/><path class="cls-1" d="M19.01,51.75c0,.49-.4,.89-.89,.89s-.89-.4-.89-.89,.4-.89,.89-.89,.89,.4,.89,.89Z"/><path class="cls-2" d="M41.6,16.3c0,.8,.65,1.45,1.45,1.45,.1,0,.2-.01,.29-.03l3.42,4.71c-.1,.19-.16,.41-.16,.64,0,.8,.65,1.45,1.45,1.45s1.45-.65,1.45-1.45c0-.15-.03-.3-.07-.43l2.85-2.68c.21,.11,.44,.18,.69,.18,.32,0,.61-.11,.85-.29l2.65,1.92s.04,.02,.06,.03c-.03,.12-.05,.24-.05,.36,0,.8,.65,1.45,1.45,1.45s1.45-.65,1.45-1.45-.65-1.45-1.45-1.45c-.29,0-.55,.09-.78,.23-.02-.01-.03-.03-.05-.04l-2.7-1.96c.02-.08,.03-.17,.03-.26,0-.8-.65-1.45-1.45-1.45s-1.45,.65-1.45,1.45c0,.16,.03,.3,.08,.45l-2.84,2.68c-.21-.12-.44-.19-.7-.19-.17,0-.34,.04-.49,.09l-3.32-4.58c.17-.24,.27-.52,.27-.83,0-.8-.65-1.45-1.45-1.45s-1.45,.65-1.45,1.45Zm15.46,5.86c0-.46,.37-.83,.83-.83s.83,.37,.83,.83-.37,.83-.83,.83-.83-.37-.83-.83Zm-8.81,.11l-.18,.17-.14-.19s.07-.01,.1-.01c.07,0,.14,.01,.21,.03Zm5.5-3.77l-.5-.36c-.21-.15-.49-.13-.68,.04l-.46,.43c.04-.43,.39-.76,.82-.76,.39,0,.72,.28,.81,.65Zm-1.01,.99l.24-.23,.27,.19c-.1,.04-.2,.06-.31,.06-.07,0-.13-.01-.2-.03Zm-5.54,3.57l.36,.49c.09,.12,.23,.2,.38,.22,.02,0,.03,0,.05,0,.13,0,.27-.05,.36-.14l.5-.47c-.04,.42-.39,.74-.82,.74-.46,0-.83-.37-.83-.83h0Zm-4.99-6.77c0-.46,.37-.83,.83-.83s.83,.37,.83,.83c0,.1-.02,.19-.05,.28l-.35-.48c-.17-.24-.5-.29-.74-.12-.24,.17-.29,.5-.12,.74l.28,.39c-.39-.07-.68-.41-.68-.81Z"/><path class="cls-1" d="M47.15,23.07c0,.49,.4,.89,.89,.89s.89-.4,.89-.89-.4-.89-.89-.89-.89,.4-.89,.89Z"/><path class="cls-1" d="M42.16,16.3c0,.49,.4,.89,.89,.89s.89-.4,.89-.89-.4-.89-.89-.89-.89,.4-.89,.89Z"/><circle class="cls-1" cx="52.94" cy="18.68" r=".89"/><path class="cls-1" d="M57.01,22.16c0,.49,.4,.89,.89,.89s.89-.4,.89-.89-.4-.89-.89-.89-.89,.4-.89,.89Z"/><path class="cls-2" d="M31.09,9.73l-5.68-5.68c-.39-.39-1.02-.39-1.41,0-.39,.39-.39,1.02,0,1.41l3.98,3.98h-8.04c-3.77,0-6.84,3.07-6.84,6.84v8.89c0,.55,.45,1,1,1s1-.45,1-1v-8.89c0-2.67,2.17-4.84,4.84-4.84h8.04l-3.97,3.97c-.39,.39-.39,1.02,0,1.41,.2,.2,.45,.29,.71,.29s.51-.1,.71-.29l5.68-5.68c.19-.19,.29-.44,.29-.71s-.11-.52-.29-.71Z"/><path class="cls-2" d="M65.21,53.56c-.55,0-1,.45-1,1v8.89c0,2.67-2.17,4.84-4.84,4.84h-8.04l3.98-3.97c.39-.39,.39-1.02,0-1.41-.39-.39-1.02-.39-1.41,0l-5.68,5.68c-.19,.19-.29,.44-.29,.71s.11,.52,.29,.71l5.68,5.68c.2,.2,.45,.29,.71,.29s.51-.1,.71-.29c.39-.39,.39-1.02,0-1.41l-3.98-3.98h8.04c3.77,0,6.84-3.07,6.84-6.84v-8.89c0-.55-.45-1-1-1Z"/></svg>