<svg id="Capa_1" data-name="Capa 1" xmlns="http://www.w3.org/2000/svg" viewBox="0 0 80 80"><defs><style>.cls-1{fill:#d71920;}.cls-2{fill:#e3acb8;}</style></defs><path class="cls-1" d="M45.08,39h0a1.43,1.43,0,0,0-.08-.22l0-.05a.9.9,0,0,0-.14-.2l-8.09-8.08a.67.67,0,0,0-.19-.14l0,0a1,1,0,0,0-.4-.1H11.77a.92.92,0,0,0-.92.92V75a.92.92,0,0,0,.92.92H44.18A.92.92,0,0,0,45.1,75V39.18A1.1,1.1,0,0,0,45.08,39ZM37,33.31l.64.63L42,38.27H37ZM12.68,74.08V32h22.5v7.17a.92.92,0,0,0,.92.92h7.17v34Z"/><path class="cls-1" d="M36.1,58.42H17.68a1,1,0,1,0,0,2H36.1a1,1,0,1,0,0-2Z"/><path class="cls-1" d="M36.1,63.77H17.68a1,1,0,1,0,0,2H36.1a1,1,0,1,0,0-2Z"/><path class="cls-1" d="M60.36,7.56,61,8.2l4.33,4.32h-5ZM49.89,50.17H67.53a.92.92,0,0,0,.91-.92V13.44a.55.55,0,0,0,0-.18h0a.58.58,0,0,0-.08-.22.08.08,0,0,0,0,0,1,1,0,0,0-.15-.2L60.09,4.71a.85.85,0,0,0-.19-.14l0,0a1,1,0,0,0-.41-.1H35.12a.92.92,0,0,0-.92.92V24.91a.91.91,0,0,0,.9.91h0a.91.91,0,0,0,.93-.91V6.27h22.5v7.17a.91.91,0,0,0,.91.91h7.17v34H49.89a.91.91,0,0,0-.91.91h0A.92.92,0,0,0,49.89,50.17Z"/><path class="cls-1" d="M59.44,32.68H45.1a1,1,0,0,0,0,2H59.44a1,1,0,0,0,0-2Z"/><path class="cls-1" d="M59.44,38H49.18a1,1,0,1,0,0,2H59.44a1,1,0,1,0,0-2Z"/><path class="cls-1" d="M33,44.45a1.43,1.43,0,0,0-1.44,1.44,1.46,1.46,0,0,0,.26.83l-3.32,4.59a1.34,1.34,0,0,0-.49-.1,1.49,1.49,0,0,0-.7.19l-2.84-2.67a1.38,1.38,0,0,0,.08-.45,1.45,1.45,0,1,0-2.89,0,2.28,2.28,0,0,0,0,.26l-2.7,2-.05,0a1.38,1.38,0,0,0-.78-.24,1.45,1.45,0,1,0,1.45,1.45,1.36,1.36,0,0,0-.05-.36l.05,0,2.65-1.92a1.41,1.41,0,0,0,.85.29,1.38,1.38,0,0,0,.69-.19l2.85,2.69a1.22,1.22,0,0,0-.08.43,1.45,1.45,0,1,0,2.89,0,1.51,1.51,0,0,0-.15-.64l3.41-4.71a1.43,1.43,0,0,0,.29,0,1.45,1.45,0,1,0,0-2.89ZM18.12,52.58a.83.83,0,1,1,.83-.83A.83.83,0,0,1,18.12,52.58ZM28,51.83h.1L28,52l-.18-.17Zm-4.91-4.38a.84.84,0,0,1,.83.76l-.46-.43a.53.53,0,0,0-.68,0l-.49.36A.82.82,0,0,1,23.07,47.45Zm0,1.66a.81.81,0,0,1-.31-.06l.27-.2.24.23A.64.64,0,0,1,23.07,49.11Zm5.74,3.55a.83.83,0,0,1-1.65.09l.5.47a.54.54,0,0,0,.36.14h.05a.54.54,0,0,0,.38-.22l.36-.49Zm4.31-5.95.28-.39a.54.54,0,0,0-.12-.75.53.53,0,0,0-.74.12l-.35.48a.87.87,0,0,1,0-.28.83.83,0,1,1,1,.82Z"/><path class="cls-2" d="M28.87,52.66a.89.89,0,1,1-.89-.89A.89.89,0,0,1,28.87,52.66Z"/><circle class="cls-2" cx="32.97" cy="45.88" r="0.89"/><circle class="cls-2" cx="23.08" cy="48.27" r="0.89"/><path class="cls-2" d="M19,51.75a.89.89,0,1,1-.89-.89A.89.89,0,0,1,19,51.75Z"/><path class="cls-1" d="M41.6,16.3a1.45,1.45,0,0,0,1.45,1.45,1.33,1.33,0,0,0,.28,0l3.42,4.71a1.38,1.38,0,0,0-.16.64,1.45,1.45,0,1,0,2.89,0,1.55,1.55,0,0,0-.07-.43L52.26,20a1.41,1.41,0,0,0,.68.18,1.44,1.44,0,0,0,.86-.29l2.64,1.92.06,0a1.49,1.49,0,0,0,0,.36,1.45,1.45,0,1,0,1.44-1.44,1.42,1.42,0,0,0-.78.23l0,0-2.71-2a1.09,1.09,0,0,0,0-.26,1.45,1.45,0,0,0-2.89,0,1.33,1.33,0,0,0,.08.45l-2.84,2.67a1.52,1.52,0,0,0-.7-.18,1.3,1.3,0,0,0-.49.09l-3.33-4.58a1.44,1.44,0,1,0-2.62-.84Zm15.46,5.86a.83.83,0,1,1,.83.83A.83.83,0,0,1,57.06,22.16Zm-8.81.11-.18.17-.14-.19H48A.76.76,0,0,1,48.25,22.27Zm5.5-3.76-.49-.36a.54.54,0,0,0-.68,0l-.46.43a.83.83,0,0,1,1.63-.11Zm-1,1,.24-.23.27.19a.87.87,0,0,1-.32.06Zm-5.54,3.56.36.49a.49.49,0,0,0,.38.22h0a.54.54,0,0,0,.36-.14l.5-.47a.83.83,0,0,1-1.65-.09Zm-5-6.76a.83.83,0,1,1,1.66,0,.64.64,0,0,1-.06.28l-.34-.48a.54.54,0,0,0-.75-.11.53.53,0,0,0-.11.74l.28.39A.83.83,0,0,1,42.22,16.3Z"/><path class="cls-2" d="M47.15,23.07a.89.89,0,1,0,1.77,0,.89.89,0,0,0-1.77,0Z"/><circle class="cls-2" cx="43.05" cy="16.3" r="0.89"/><circle class="cls-2" cx="52.94" cy="18.68" r="0.89"/><path class="cls-2" d="M57,22.16a.89.89,0,1,0,.88-.88A.88.88,0,0,0,57,22.16Z"/><path class="cls-1" d="M31.09,9.73,25.4,4A1,1,0,0,0,24,4a1,1,0,0,0,0,1.42l4,4h-8a6.85,6.85,0,0,0-6.84,6.85v8.88a1,1,0,0,0,2,0V16.28a4.85,4.85,0,0,1,4.84-4.85h8l-4,4a1,1,0,0,0,0,1.41,1,1,0,0,0,1.41,0l5.69-5.68a1,1,0,0,0,.29-.71A1,1,0,0,0,31.09,9.73Z"/><path class="cls-1" d="M65.21,53.56a1,1,0,0,0-1,1v8.89a4.84,4.84,0,0,1-4.84,4.84h-8l4-4a1,1,0,0,0,0-1.42,1,1,0,0,0-1.41,0l-5.68,5.68a1,1,0,0,0-.3.71,1,1,0,0,0,.3.71l5.68,5.68a1,1,0,0,0,1.41,0,1,1,0,0,0,0-1.41l-4-4h8a6.85,6.85,0,0,0,6.84-6.84V54.56A1,1,0,0,0,65.21,53.56Z"/></svg>