<?xml version="1.0" encoding="UTF-8"?><svg id="Capa_1" xmlns="http://www.w3.org/2000/svg" viewBox="0 0 80 80"><defs><style>.cls-1{fill:#bdbdbd;}.cls-2{fill:#424242;}</style></defs><path class="cls-2" d="M68.09,18.06h0c-.02-.12-.07-.24-.12-.35-.01-.03-.03-.05-.04-.08-.06-.11-.14-.22-.23-.31l-12.76-12.76c-.09-.09-.2-.16-.31-.23-.03-.02-.05-.03-.08-.04-.2-.1-.41-.15-.63-.15H15.5c-.8,0-1.44,.65-1.44,1.44V74.88c0,.8,.65,1.44,1.44,1.44h51.17c.8,0,1.44-.65,1.44-1.44V18.34c0-.09,0-.19-.03-.28Zm-12.73-8.99l1,1,6.83,6.83h-7.83v-7.83ZM16.95,73.44V7.03H52.46v11.32c0,.8,.65,1.44,1.44,1.44h11.32v53.65H16.95Z"/><path class="cls-2" d="M49.12,20.8h-9.08c-.87,0-1.58,.71-1.58,1.58s.71,1.58,1.58,1.58h9.08c.87,0,1.58-.71,1.58-1.58s-.71-1.58-1.58-1.58Z"/><path class="cls-2" d="M59.12,28.03h-19.08c-.87,0-1.58,.71-1.58,1.58s.71,1.58,1.58,1.58h19.08c.87,0,1.58-.71,1.58-1.58s-.71-1.58-1.58-1.58Z"/><path class="cls-2" d="M49.12,38.96h-9.08c-.87,0-1.58,.71-1.58,1.58s.71,1.58,1.58,1.58h9.08c.87,0,1.58-.71,1.58-1.58s-.71-1.58-1.58-1.58Z"/><path class="cls-2" d="M59.12,46.19h-19.08c-.87,0-1.58,.71-1.58,1.58s.71,1.58,1.58,1.58h19.08c.87,0,1.58-.71,1.58-1.58s-.71-1.58-1.58-1.58Z"/><path class="cls-1" d="M32.8,25.94c0,3.02-2.52,5.47-5.64,5.47s-5.64-2.45-5.64-5.47,2.52-5.47,5.64-5.47,5.64,2.45,5.64,5.47Z"/><path class="cls-2" d="M33.3,26.08c0,3.45-2.79,6.24-6.24,6.24s-6.24-2.79-6.24-6.24,2.79-6.24,6.24-6.24,6.24,2.79,6.24,6.24Zm-1.17,0c0-2.8-2.27-5.07-5.07-5.07s-5.07,2.27-5.07,5.07,2.27,5.07,5.07,5.07,5.07-2.27,5.07-5.07Zm-2.95,1.42c-.13,.69-.71,1.15-1.53,1.28v.42c0,.32-.26,.59-.58,.59s-.58-.26-.58-.59v-.44c-.34-.06-.69-.17-1.01-.27l-.15-.05c-.31-.1-.47-.43-.37-.74,.1-.31,.43-.47,.74-.37l.16,.05c.27,.1,.63,.21,.9,.25,.68,.1,1.23-.05,1.28-.34,.04-.23-.04-.36-1.12-.64l-.21-.06c-.6-.16-2.01-.55-1.76-1.93,.13-.69,.71-1.15,1.53-1.28v-.42c0-.32,.26-.58,.59-.58s.58,.26,.58,.58v.44c.22,.04,.46,.1,.76,.19,.31,.1,.48,.43,.38,.74-.1,.31-.43,.48-.73,.38-.28-.09-.5-.15-.68-.17-.67-.1-1.22,.05-1.28,.34-.03,.17-.06,.32,.91,.58l.2,.06c.84,.22,2.23,.59,1.97,1.99Z"/><path class="cls-1" d="M32.8,43.49c0,3.02-2.52,5.47-5.64,5.47s-5.64-2.45-5.64-5.47,2.52-5.47,5.64-5.47,5.64,2.45,5.64,5.47Z"/><path class="cls-2" d="M33.3,43.62c0,3.45-2.79,6.24-6.24,6.24s-6.24-2.79-6.24-6.24,2.79-6.24,6.24-6.24,6.24,2.79,6.24,6.24Zm-1.17,0c0-2.8-2.27-5.07-5.07-5.07s-5.07,2.27-5.07,5.07,2.27,5.07,5.07,5.07,5.07-2.27,5.07-5.07Zm-2.95,1.42c-.13,.69-.71,1.15-1.53,1.28v.42c0,.32-.26,.59-.58,.59s-.58-.26-.58-.59v-.44c-.34-.06-.69-.17-1.01-.27l-.15-.05c-.31-.1-.47-.43-.37-.74,.1-.31,.43-.47,.74-.37l.16,.05c.27,.1,.63,.21,.9,.25,.68,.1,1.23-.05,1.28-.34,.04-.23-.04-.36-1.12-.64l-.21-.06c-.6-.16-2.01-.55-1.76-1.93,.13-.69,.71-1.15,1.53-1.28v-.42c0-.32,.26-.58,.59-.58s.58,.26,.58,.58v.44c.22,.04,.46,.1,.76,.19,.31,.1,.48,.43,.38,.74-.1,.31-.43,.48-.73,.38-.28-.09-.5-.15-.68-.17-.67-.1-1.22,.05-1.28,.34-.03,.17-.06,.32,.91,.58l.2,.06c.84,.22,2.23,.59,1.97,1.99Z"/><path class="cls-2" d="M49.12,55.84h-9.08c-.87,0-1.58,.71-1.58,1.58s.71,1.58,1.58,1.58h9.08c.87,0,1.58-.71,1.58-1.58s-.71-1.58-1.58-1.58Z"/><path class="cls-2" d="M59.12,63.07h-19.08c-.87,0-1.58,.71-1.58,1.58s.71,1.58,1.58,1.58h19.08c.87,0,1.58-.71,1.58-1.58s-.71-1.58-1.58-1.58Z"/><path class="cls-1" d="M32.8,60.36c0,3.02-2.52,5.47-5.64,5.47s-5.64-2.45-5.64-5.47,2.52-5.47,5.64-5.47,5.64,2.45,5.64,5.47Z"/><path class="cls-2" d="M33.3,60.5c0,3.45-2.79,6.24-6.24,6.24s-6.24-2.79-6.24-6.24,2.79-6.24,6.24-6.24,6.24,2.79,6.24,6.24Zm-1.17,0c0-2.8-2.27-5.07-5.07-5.07s-5.07,2.27-5.07,5.07,2.27,5.07,5.07,5.07,5.07-2.27,5.07-5.07Zm-2.95,1.42c-.13,.69-.71,1.15-1.53,1.28v.42c0,.32-.26,.59-.58,.59s-.58-.26-.58-.59v-.44c-.34-.06-.69-.17-1.01-.27l-.15-.05c-.31-.1-.47-.43-.37-.74,.1-.31,.43-.47,.74-.37l.16,.05c.27,.1,.63,.21,.9,.25,.68,.1,1.23-.05,1.28-.34,.04-.23-.04-.36-1.12-.64l-.21-.06c-.6-.16-2.01-.55-1.76-1.93,.13-.69,.71-1.15,1.53-1.28v-.42c0-.32,.26-.58,.59-.58s.58,.26,.58,.58v.44c.22,.04,.46,.1,.76,.19,.31,.1,.48,.43,.38,.74-.1,.31-.43,.48-.73,.38-.28-.09-.5-.15-.68-.17-.67-.1-1.22,.05-1.28,.34-.03,.17-.06,.32,.91,.58l.2,.06c.84,.22,2.23,.59,1.97,1.99Z"/></svg>